<?xml version="1.0" encoding="iso-8859-1"?>
<!-- Uploaded to: SVG Repo, www.svgrepo.com, Generator: SVG Repo Mixer Tools -->
<svg fill="#000000" height="800px" width="800px" version="1.1" id="Layer_1" xmlns="http://www.w3.org/2000/svg" xmlns:xlink="http://www.w3.org/1999/xlink" 
	 viewBox="0 0 512 512" xml:space="preserve">
<g>
	<g>
		<path d="M501.801,75.789h-62.517V13.272c0-5.632-4.566-10.199-10.199-10.199H238.589c-5.633,0-10.199,4.567-10.199,10.199v235.602
			h-97.339C58.789,248.874,0,307.662,0,379.924v46.087c0,5.632,4.566,10.199,10.199,10.199h63.556
			c-0.682,5.443-1.039,10.935-1.039,16.429v46.088c0,5.632,4.566,10.199,10.199,10.199h418.885c5.633,0,10.199-4.567,10.199-10.199
			V459.81V85.988C512,80.356,507.434,75.789,501.801,75.789z M131.052,269.272H238.59c5.633,0,10.199-4.567,10.199-10.199V23.471
			h170.097v52.318H311.305c-5.633,0-10.199,4.567-10.199,10.199V321.59h-97.339c-42.774,0-82.33,20.575-106.934,55.305h-0.018
			H20.439C22.05,317.275,71.05,269.272,131.052,269.272z M77.972,415.815l-0.003-0.002h-57.57v-18.521h64.548h0.006
			C82.159,403.277,79.827,409.461,77.972,415.815z M491.602,488.529H93.115v-18.52h398.487V488.529z M491.602,449.61H93.155
			c0.196-7.2,1.088-14.371,2.66-21.36c2.853-12.686,7.89-24.67,14.971-35.617c20.514-31.713,55.272-50.645,92.98-50.645h107.538
			c5.633,0,10.199-4.567,10.199-10.199V96.188h107.58h62.517V449.61z"/>
	</g>
</g>
<g>
	<g>
		<path d="M346.639,111.122c-5.633,0-10.199,4.567-10.199,10.199v106.514c0,5.632,4.566,10.199,10.199,10.199
			c5.633,0,10.199-4.567,10.199-10.199V121.322C356.839,115.69,352.272,111.122,346.639,111.122z"/>
	</g>
</g>
<g>
	<g>
		<path d="M346.639,253.482c-5.633,0-10.199,4.567-10.199,10.199v28.676c0,5.632,4.566,10.199,10.199,10.199
			c5.633,0,10.199-4.567,10.199-10.199v-28.676C356.839,258.049,352.272,253.482,346.639,253.482z"/>
	</g>
</g>
</svg>