<?xml version="1.0" encoding="iso-8859-1"?>
<!-- Uploaded to: SVG Repo, www.svgrepo.com, Generator: SVG Repo Mixer Tools -->
<svg fill="#000000" height="800px" width="800px" version="1.1" id="Layer_1" xmlns="http://www.w3.org/2000/svg" xmlns:xlink="http://www.w3.org/1999/xlink" 
	 viewBox="0 0 512 512" xml:space="preserve">
<g>
	<g>
		<path d="M470.734,389.266L461.807,126.2c-0.785-23.138-15.101-43.845-36.473-52.749l-35.185-14.66l-28.236-46.674
			C357.391,4.643,349.156,0,340.42,0H171.58c-8.735,0-16.971,4.643-21.492,12.117l-28.236,46.674l-35.186,14.66
			c-21.371,8.904-35.687,29.609-36.473,52.749l-8.927,263.066c-0.278,8.212,3.555,15.957,9.909,20.82l-1.226,25.744
			c-0.471,9.913,4.955,19.195,13.828,23.647l64.491,32.351v3.603c0,9.136,7.432,16.568,16.568,16.568h222.33
			c9.136,0,16.568-7.432,16.568-16.568v-3.603l64.491-32.352c8.872-4.451,14.299-13.733,13.827-23.646l-1.226-25.744
			C467.179,405.223,471.012,397.479,470.734,389.266z M326.493,16.033l-67.991,52.3l-71.912-52.3H326.493z M163.806,20.416
			c0.158-0.262,0.34-0.506,0.523-0.747l80.927,58.857l-11.217,8.629L173.768,48.8c-6.922-4.405-15.574-5.152-23.147-1.995
			l-3.715,1.548L163.806,20.416z M65.582,145.469c6.64,2.532,11.378,8.95,11.378,16.468c0,7.941-5.278,14.669-12.509,16.871
			L65.582,145.469z M70.965,445.146c-3.208-1.611-5.17-4.967-5-8.554l0.908-19.066l36.824,15.297l-0.304,10.312
			c-0.237,8.053,2.333,15.724,7.288,21.935L70.965,445.146z M247.983,495.967H144.835c-0.295,0-0.534-0.241-0.534-0.534v-17.637
			h103.683V495.967z M247.983,461.762H137.049c-4.81,0-9.304-1.899-12.654-5.351c-3.35-3.45-5.118-7.997-4.976-12.804l5.534-188.141
			h123.03V461.762z M247.983,239.432H125.425l0.534-18.171h122.024V239.432z M247.983,205.228H126.431l0.763-25.952
			c0.13-4.426-3.352-8.119-7.777-8.25c-4.416-0.087-8.119,3.352-8.249,7.777l-6.966,236.868l-41.316-17.163
			c-3.474-1.444-5.723-4.939-5.596-8.7l6.602-194.519c16.411-2.237,29.102-16.336,29.102-33.352
			c0-16.23-11.544-29.815-26.852-32.975l0.075-2.219c0.574-16.885,11.021-31.994,26.617-38.492l63.955-26.648
			c2.739-1.142,5.867-0.872,8.372,0.722l82.823,52.706V205.228z M248.429,96.309l99.38-76.446c0.13,0.183,0.268,0.358,0.386,0.552
			l16.9,27.937l-3.714-1.548c-7.573-3.158-16.226-2.411-23.147,1.995L256,101.128L248.429,96.309z M264.017,221.261H386.04
			l0.534,18.171H264.017V221.261z M367.699,495.432c0,0.294-0.239,0.534-0.534,0.534H264.017v-18.171h103.683V495.432z
			 M387.604,456.411c-3.35,3.451-7.844,5.351-12.654,5.351H264.017V255.466h123.03l5.534,188.141
			C392.721,448.414,390.954,452.962,387.604,456.411z M441.034,445.145l-39.716,19.923c4.954-6.21,7.525-13.881,7.288-21.934
			l-0.304-10.312l36.824-15.297l0.907,19.066C446.205,440.179,444.243,443.535,441.034,445.145z M449.114,398.508l-41.316,17.163
			l-6.967-236.868c-0.13-4.426-3.838-7.873-8.249-7.777c-4.425,0.13-7.908,3.823-7.777,8.25l0.764,25.952H264.017v-90.196
			l82.824-52.706c2.503-1.593,5.633-1.863,8.372-0.722l63.954,26.648c15.595,6.498,26.042,21.607,26.615,38.492l8.927,263.065
			C454.837,393.569,452.589,397.064,449.114,398.508z"/>
	</g>
</g>
<g>
	<g>
		<path d="M181.575,342.457c-4.199-1.397-8.74,0.87-10.141,5.07l-25.653,76.96c-1.4,4.201,0.87,8.741,5.071,10.141
			c0.841,0.28,1.695,0.414,2.536,0.414c3.356,0,6.484-2.124,7.604-5.483l25.653-76.96
			C188.045,348.397,185.775,343.857,181.575,342.457z"/>
	</g>
</g>
<g>
	<g>
		<path d="M366.219,424.488l-25.653-76.96c-1.401-4.2-5.941-6.468-10.141-5.07c-4.201,1.4-6.47,5.941-5.071,10.141l25.653,76.96
			c1.12,3.36,4.248,5.483,7.604,5.483c0.84,0,1.695-0.134,2.536-0.414C365.349,433.228,367.618,428.687,366.219,424.488z"/>
	</g>
</g>
</svg>