<?xml version="1.0" encoding="utf-8"?>

<!DOCTYPE svg PUBLIC "-//W3C//DTD SVG 1.1//EN" "http://www.w3.org/Graphics/SVG/1.1/DTD/svg11.dtd">
<!-- Uploaded to: SVG Repo, www.svgrepo.com, Generator: SVG Repo Mixer Tools -->
<svg height="800px" width="800px" version="1.1" id="_x32_" xmlns="http://www.w3.org/2000/svg" xmlns:xlink="http://www.w3.org/1999/xlink" 
	 viewBox="0 0 512 512"  xml:space="preserve">
<style type="text/css">
	.st0{fill:#000000;}
</style>
<g>
	<path class="st0" d="M196.987,11.196C186.508,4.07,173.719-0.029,159.38,0c-17.047,0.015-36.136,5.54-57.615,17.316
		C78.374,30.09,63.594,49.765,55.099,71.158c-8.552,21.429-11.203,44.638-11.218,66.088c0.007,29.764,5.192,56.341,8.111,70.086
		l-0.008-0.022c0.739,3.526,3.78,17.134,7.626,38.055c3.838,20.885,8.444,48.926,12.238,80.84
		c1.97,16.641,4.244,31.646,7.445,44.992c4.809,19.959,11.645,36.542,23.623,48.578c5.975,5.974,13.216,10.631,21.537,13.644
		c8.335,3.034,17.684,4.468,28.12,4.468c1.6,0,3.237-0.036,4.895-0.094c11.188-0.464,21.646-2.245,31.176-5.91
		c14.302-5.438,26.353-15.562,34.044-30.278c7.748-14.722,11.485-33.551,11.492-57.406c0-9.371-0.58-19.531-1.767-30.574
		c-1.5-13.977-2.296-29.785-2.296-47.941c0-31.748,2.448-70.708,7.835-119.706c0.934-8.488,1.42-17.178,1.42-25.896
		c-0.044-28.627-5.106-57.558-17.511-80.427C215.649,28.243,207.481,18.308,196.987,11.196z M218.879,143.879
		c-5.431,49.468-7.952,89.074-7.952,121.807c0,18.72,0.825,35.202,2.412,49.99c1.115,10.465,1.658,19.952,1.658,28.526
		c0,14.571-1.556,26.447-4.316,35.934c-4.193,14.252-10.689,22.956-19.322,28.873c-8.66,5.873-20.175,9.016-34.673,9.61
		c-1.405,0.05-2.781,0.087-4.114,0.087c-11.602-0.015-20.233-2.115-26.997-5.735c-5.084-2.745-9.263-6.373-12.992-11.232
		c-5.576-7.264-10.029-17.452-13.498-30.546c-3.49-13.086-6.018-28.952-8.183-47.245c-3.853-32.422-8.523-60.846-12.413-82.05
		c-3.896-21.16-7.039-35.26-7.727-38.548l-0.006-0.015c-2.817-13.209-7.691-38.526-7.684-66.088
		c-0.014-19.857,2.557-40.771,9.842-58.963c7.343-18.227,19.016-33.652,38.077-44.138c19.524-10.71,35.593-14.969,48.389-14.954
		c10.813,0.029,19.394,2.882,26.838,7.886c11.109,7.481,19.755,20.509,25.484,37.056c5.743,16.498,8.487,36.231,8.48,55.951
		C220.183,128.092,219.733,136.094,218.879,143.879z"/>
	<path class="st0" d="M157.534,97.199c-2.165-2.81-4.142-5.25-5.815-7.314c0,0-2.166-2.68-2.781-3.491l-0.818-12.521
		c-0.492-7.546-6.793-13.455-14.454-13.455l-0.848,0.029c-3.831,0.254-7.343,1.977-9.885,4.881
		c-2.534,2.896-3.794,6.597-3.534,10.42l0.746,11.421c-0.572,1.224-1.89,3.519-3.389,6.156l-2.723,4.83
		c-10.95,19.604-25.484,50.953-25.44,96.664c0,9.754,0.674,19.799,1.999,29.836c0.948,7.133,7.082,12.5,14.266,12.5
		c0.623,0,1.253-0.036,1.904-0.123c7.857-1.05,13.412-8.292,12.376-16.156c-1.166-8.806-1.76-17.576-1.76-26.056
		c0.007-22.609,4.026-43.277,12.275-63.192c2.368-5.714,4.75-10.558,6.851-14.541c4.577,6.126,10.319,14.657,15.635,25.752
		c9.906,20.719,15.534,44.762,16.706,71.462c0.348,7.836,6.728,13.752,15.005,13.745c0,0,0,0,0.008,0
		c7.923-0.348,14.092-7.082,13.752-15.005c-1.492-34.152-9.472-64.734-23.709-90.87C169.266,113.653,163.907,105.484,157.534,97.199
		z"/>
	<path class="st0" d="M468.119,211.359c-0.014-21.458-2.672-44.66-11.224-66.089c-8.495-21.392-23.276-41.075-46.659-53.85
		c-21.479-11.768-40.568-17.3-57.616-17.308c-14.346-0.036-27.134,4.063-37.607,11.189c-10.493,7.119-18.669,17.048-24.882,28.46
		c-12.398,22.87-17.468,51.801-17.51,80.434c0,8.72,0.492,17.41,1.419,25.897c5.395,48.99,7.843,87.951,7.843,119.707
		c0,18.155-0.804,33.956-2.303,47.94c-1.187,11.044-1.767,21.204-1.767,30.575c0.015,23.847,3.752,42.682,11.493,57.398
		c7.691,14.715,19.741,24.846,34.044,30.278c9.537,3.672,19.994,5.446,31.183,5.91c1.658,0.065,3.295,0.101,4.895,0.101
		c10.429,0,19.785-1.441,28.112-4.468c8.321-3.012,15.57-7.669,21.537-13.643c11.985-12.044,18.814-28.627,23.63-48.578
		c3.194-13.347,5.468-28.352,7.445-44.993c3.788-31.914,8.394-59.955,12.238-80.84c3.838-20.922,6.88-34.536,7.626-38.055
		l-0.008,0.015C462.926,267.699,468.112,241.115,468.119,211.359z M441.245,277.44l-0.008,0.022
		c-0.695,3.288-3.837,17.38-7.727,38.548c-3.896,21.196-8.566,49.627-12.412,82.049c-2.165,18.285-4.7,34.16-8.183,47.238
		c-3.476,13.094-7.93,23.29-13.498,30.546c-3.737,4.866-7.908,8.487-12.992,11.232c-6.764,3.628-15.395,5.728-26.997,5.736
		c-1.34,0-2.716-0.029-4.121-0.088c-14.497-0.593-26.005-3.729-34.666-9.61c-8.632-5.909-15.128-14.614-19.328-28.865
		c-2.752-9.487-4.309-21.364-4.309-35.934c0-8.575,0.536-18.062,1.659-28.526c1.586-14.788,2.412-31.277,2.412-49.99
		c0-32.733-2.521-72.338-7.952-121.807c-0.862-7.792-1.311-15.787-1.311-23.797c-0.007-19.727,2.745-39.453,8.488-55.95
		c5.728-16.548,14.368-29.576,25.476-37.056c7.444-5.004,16.026-7.858,26.845-7.893c12.796-0.007,28.866,4.243,48.39,14.954
		c19.06,10.493,30.734,25.911,38.07,44.138c7.292,18.191,9.856,39.112,9.848,58.97C448.935,238.921,444.062,264.238,441.245,277.44z
		"/>
	<path class="st0" d="M395.245,167.43c-1.499-2.636-2.817-4.931-3.396-6.148l0.753-11.427c0.254-3.824-0.999-7.524-3.534-10.421
		c-2.542-2.896-6.054-4.627-9.892-4.874l-0.84-0.036c-7.669,0-13.962,5.909-14.454,13.455l-0.819,12.528
		c-0.622,0.804-2.788,3.49-2.788,3.49c-1.665,2.065-3.65,4.505-5.808,7.308c-6.38,8.284-11.732,16.453-16.367,24.977
		c-14.244,26.136-22.218,56.71-23.709,90.87c-0.348,7.922,5.822,14.649,13.752,15.004c0.007,0,0.007,0,0.007,0
		c8.277,0,14.65-5.909,15.005-13.752c1.173-26.7,6.793-50.743,16.699-71.462c5.316-11.094,11.066-19.626,15.635-25.745
		c2.1,3.976,4.49,8.821,6.858,14.541c8.248,19.915,12.268,40.583,12.275,63.192c0,8.48-0.594,17.25-1.767,26.056
		c-1.028,7.858,4.526,15.106,12.383,16.156c0.652,0.086,1.282,0.123,1.905,0.123c7.184,0,13.31-5.373,14.259-12.506
		c1.325-10.037,1.999-20.074,1.999-29.829c0.043-45.717-14.491-77.06-25.433-96.67L395.245,167.43z"/>
</g>
</svg>